<svg width="40" height="40" viewBox="0 0 40 40" fill="none" xmlns="http://www.w3.org/2000/svg">
<g clip-path="url(#clip0_522_993)">
<path d="M20 39C30.4934 39 39 30.4934 39 20C39 9.50659 30.4934 1 20 1C9.50659 1 1 9.50659 1 20C1 30.4934 9.50659 39 20 39Z" stroke="white" stroke-width="2"/>
<path d="M31.3812 16.6737L23.9922 9.28469C23.5941 8.88727 23.0546 8.66406 22.4922 8.66406C21.9297 8.66406 21.3902 8.88727 20.9922 9.28469L9.28518 20.9967C8.88776 21.3947 8.66455 21.9342 8.66455 22.4967C8.66455 23.0592 8.88776 23.5986 9.28518 23.9967L10.1962 24.9077L16.3192 31.0307H15.4722C15.3433 31.0307 15.2197 31.0819 15.1285 31.173C15.0374 31.2642 14.9862 31.3878 14.9862 31.5167C14.9862 31.6456 15.0374 31.7692 15.1285 31.8603C15.2197 31.9515 15.3433 32.0027 15.4722 32.0027H25.1942C25.3231 32.0027 25.4467 31.9515 25.5378 31.8603C25.629 31.7692 25.6802 31.6456 25.6802 31.5167C25.6802 31.3878 25.629 31.2642 25.5378 31.173C25.4467 31.0819 25.3231 31.0307 25.1942 31.0307H20.0232L31.3812 19.6687C31.7776 19.2711 32.0001 18.7326 32.0001 18.1712C32.0001 17.6098 31.7776 17.0713 31.3812 16.6737ZM30.6942 18.9817L18.9822 30.6927C18.876 30.799 18.7499 30.8832 18.6111 30.9406C18.4722 30.9979 18.3234 31.0272 18.1732 31.0267C18.0231 31.0271 17.8745 30.9978 17.7358 30.9405C17.5971 30.8831 17.4712 30.7989 17.3652 30.6927L11.2282 24.5557L22.4752 13.3127C22.5225 13.2681 22.5604 13.2144 22.5867 13.1549C22.6129 13.0954 22.6269 13.0312 22.6279 12.9662C22.6289 12.9011 22.6168 12.8366 22.5923 12.7763C22.5679 12.716 22.5316 12.6612 22.4856 12.6153C22.4396 12.5693 22.3849 12.533 22.3246 12.5085C22.2643 12.4841 22.1997 12.472 22.1347 12.473C22.0696 12.4739 22.0055 12.488 21.9459 12.5142C21.8864 12.5404 21.8328 12.5783 21.7882 12.6257L10.5412 23.8717L9.97318 23.3037C9.75938 23.0881 9.63942 22.7968 9.63942 22.4932C9.63942 22.1896 9.75938 21.8983 9.97318 21.6827L21.6842 9.97269C21.8997 9.75889 22.1911 9.63893 22.4947 9.63893C22.7983 9.63893 23.0896 9.75889 23.3052 9.97269L25.9352 12.6027L14.6872 23.8497C14.6005 23.9417 14.5531 24.0638 14.555 24.1902C14.5569 24.3165 14.6079 24.4372 14.6973 24.5266C14.7867 24.6159 14.9073 24.667 15.0337 24.6688C15.1601 24.6707 15.2822 24.6233 15.3742 24.5367L26.6222 13.2897L30.6932 17.3607C30.9081 17.5756 31.0289 17.867 31.0291 18.171C31.0293 18.4749 30.9088 18.7665 30.6942 18.9817Z" fill="white"/>
<path d="M20.6434 22.7067C20.5523 22.6156 20.4287 22.5645 20.2999 22.5645C20.1711 22.5645 20.0475 22.6156 19.9564 22.7067L16.1314 26.5316C16.0402 26.6227 15.9889 26.7464 15.9888 26.8753C15.9887 27.0042 16.0398 27.1279 16.1309 27.2191C16.222 27.3104 16.3456 27.3617 16.4745 27.3618C16.6035 27.3619 16.7272 27.3108 16.8184 27.2197L20.6434 23.3947C20.6886 23.3495 20.7245 23.2959 20.749 23.2369C20.7735 23.1778 20.7861 23.1146 20.7861 23.0507C20.7861 22.9868 20.7735 22.9235 20.749 22.8644C20.7245 22.8054 20.6886 22.7518 20.6434 22.7067Z" fill="white"/>
<path d="M19.0744 26.3363L17.5054 27.9053C17.4142 27.9964 17.3629 28.12 17.3628 28.249C17.3627 28.3779 17.4138 28.5016 17.5049 28.5928C17.596 28.684 17.7196 28.7353 17.8486 28.7354C17.9775 28.7355 18.1012 28.6844 18.1924 28.5933L19.7614 27.0243C19.8481 26.9323 19.8955 26.8102 19.8936 26.6838C19.8917 26.5574 19.8407 26.4368 19.7513 26.3474C19.6619 26.2581 19.5413 26.207 19.4149 26.2051C19.2886 26.2032 19.1664 26.2507 19.0744 26.3373V26.3363Z" fill="white"/>
<path d="M20.518 24.892L20.312 25.098C20.2646 25.1426 20.2267 25.1962 20.2005 25.2557C20.1742 25.3153 20.1602 25.3794 20.1592 25.4445C20.1583 25.5095 20.1703 25.5741 20.1948 25.6344C20.2192 25.6947 20.2555 25.7494 20.3015 25.7954C20.3475 25.8414 20.4023 25.8777 20.4626 25.9022C20.5228 25.9266 20.5874 25.9387 20.6524 25.9377C20.7175 25.9367 20.7817 25.9227 20.8412 25.8965C20.9007 25.8702 20.9544 25.8323 20.999 25.785L21.205 25.579C21.2916 25.487 21.339 25.3648 21.3371 25.2385C21.3352 25.1121 21.2842 24.9915 21.1948 24.9021C21.1055 24.8127 20.9848 24.7617 20.8585 24.7598C20.7321 24.7579 20.61 24.8053 20.518 24.892Z" fill="white"/>
<path d="M27.2164 16.1305C27.1253 16.0394 27.0017 15.9883 26.8729 15.9883C26.7441 15.9883 26.6205 16.0394 26.5294 16.1305L24.4674 18.1925C24.3764 18.2836 24.3252 18.4072 24.3252 18.536C24.3252 18.6648 24.3764 18.7883 24.4674 18.8795L25.8424 20.2545C25.9335 20.3455 26.0571 20.3967 26.1859 20.3967C26.3147 20.3967 26.4383 20.3455 26.5294 20.2545L28.5914 18.1925C28.6824 18.1013 28.7336 17.9778 28.7336 17.849C28.7336 17.7201 28.6824 17.5966 28.5914 17.5055L27.2164 16.1305ZM26.1854 19.2235L25.4984 18.5365L26.8734 17.1615L27.5604 17.8485L26.1854 19.2235Z" fill="white"/>
<path d="M23.266 12.3202C23.3299 12.3204 23.3931 12.308 23.4522 12.2836C23.5112 12.2592 23.5649 12.2234 23.61 12.1782L23.816 11.9722C23.9071 11.881 23.9582 11.7573 23.9581 11.6284C23.958 11.4994 23.9067 11.3758 23.8155 11.2847C23.7243 11.1936 23.6006 11.1425 23.4716 11.1426C23.3427 11.1427 23.2191 11.194 23.128 11.2852L22.922 11.4912C22.8539 11.5592 22.8075 11.6458 22.7887 11.7402C22.7699 11.8346 22.7795 11.9324 22.8163 12.0213C22.8532 12.1102 22.9156 12.1861 22.9956 12.2395C23.0757 12.2929 23.1698 12.3213 23.266 12.3212V12.3202Z" fill="white"/>
<path d="M13.5532 24.9838L13.3472 25.1898C13.256 25.2809 13.2047 25.4045 13.2046 25.5334C13.2045 25.6624 13.2556 25.7861 13.3467 25.8773C13.4378 25.9685 13.5614 26.0199 13.6904 26.02C13.8193 26.02 13.943 25.9689 14.0342 25.8778L14.2402 25.6718C14.2876 25.6272 14.3255 25.5736 14.3517 25.514C14.378 25.4545 14.392 25.3903 14.393 25.3253C14.3939 25.2603 14.3818 25.1957 14.3574 25.1354C14.333 25.0751 14.2967 25.0204 14.2507 24.9744C14.2047 24.9284 14.1499 24.8921 14.0896 24.8676C14.0293 24.8432 13.9648 24.8311 13.8997 24.8321C13.8347 24.8331 13.7705 24.8471 13.711 24.8733C13.6515 24.8995 13.5978 24.9374 13.5532 24.9848V24.9838Z" fill="white"/>
</g>
<defs>
<clipPath id="clip0_522_993">
<rect width="40" height="40" fill="white"/>
</clipPath>
</defs>
</svg>
